{"title":"The Hunger Games Mockingjay Part 2 (2015) DVDRip XviD-MAXSPEED","uid":13798425,"size":1463837301,"categoryP":"video","categoryS":"movies","magnet":"?xt=urn:btih:86c8b014a5cfcb18c90c91c7adc9056563be0318&amp;dn=The+Hunger+Games+Mockingjay+Part+2+%282015%29+DVDRip+XviD-MAXSPEED&amp;tr=udp%3A%2F%2Ftracker.leechers-paradise.org%3A6969&amp;tr=udp%3A%2F%2Fzer0day.ch%3A1337&amp;tr=udp%3A%2F%2Fopen.demonii.com%3A1337&amp;tr=udp%3A%2F%2Ftracker.coppersurfer.tk%3A6969&amp;tr=udp%3A%2F%2Fexodus.desync.com%3A6969","seeders":8,"leechers":7,"uploader":"extremezone","files":4,"time":1457436538,"description":"Format                                   : AVI\r\nFormat/Info                              : Audio Video Interleave\r\nFormat profile                           : OpenDML\r\nFormat settings                          : rec\r\nFile size                                : 1.36 GiB\r\nDuration                                 : 2h 16mn\r\nOverall bit rate                         : 1 420 Kbps\r\nWriting application                      : VirtualDubMod 1.5.10.2 (build 2542/release)\r\nWriting library                          : VirtualDubMod build 2542/release\r\n\r\nVideo\r\nID                                       : 0\r\nFormat                                   : MPEG-4 Visual\r\nFormat profile                           :   \r\nFormat settings, BVOP                    : No\r\nFormat settings, QPel                    : No\r\nFormat settings, GMC                     : No warppoints\r\nFormat settings, Matrix                  : Default (H.263)\r\nCodec ID                                 : XVID\r\nCodec ID/Hint                            : XviD\r\nDuration                                 : 2h 16mn\r\nBit rate                                 : 1 030 Kbps\r\nWidth                                    : 720 pixels\r\nHeight                                   : 400 pixels\r\nDisplay aspect ratio                     : 16:9\r\nFrame rate                               : 23.976 fps\r\nColor space                              : YUV\r\nChroma subsampling                       : 4:2:0\r\nBit depth                                : 8 bits\r\nScan type                                : Progressive\r\nCompression mode                         : Lossy\r\nBits/(Pixel*Frame)                       : 0.149\r\nStream size                              : 1 009 MiB (73%)\r\nWriting library                          : XviD 1.1.2 (UTC 2006-11-01)\r\n\r\nAudio\r\nID                                       : 1\r\nFormat                                   : AC-3\r\nFormat/Info                              : Audio Coding 3\r\nMode extension                           : CM (complete main)\r\nFormat settings, Endianness              : Big\r\nCodec ID                                 : 2000\r\nDuration                                 : 2h 16mn\r\nBit rate mode                            : Constant\r\nBit rate                                 : 384 Kbps\r\nChannel(s)                               : 6 channels\r\nChannel positions                        : Front: L C R, Side: L R, LFE\r\nSampling rate                            : 48.0 KHz\r\nBit depth                                : 16 bits\r\nCompression mode                         : Lossy\r\nStream size                              : 376 MiB (27%)\r\nAlignment                                : Aligned on interleaves\r\nInterleave, duration                     : 64 ms (1.53 video frames)\r\nInterleave, preload duration             : 192 ms\r\n \nhttp://torentz.3xforum.ro/post/3844/1/The_Hunger_Games_Mockingjay_Part_2_2015_DVDRip_XviD-MAXSPEED/","torrent":{"xt":"urn:btih:86c8b014a5cfcb18c90c91c7adc9056563be0318","amp;dn":"The+Hunger+Games+Mockingjay+Part+2+%282015%29+DVDRip+XviD-MAXSPEED","amp;tr":["udp%3A%2F%2Ftracker.leechers-paradise.org%3A6969","udp%3A%2F%2Fzer0day.ch%3A1337","udp%3A%2F%2Fopen.demonii.com%3A1337","udp%3A%2F%2Ftracker.coppersurfer.tk%3A6969","udp%3A%2F%2Fexodus.desync.com%3A6969"],"infoHash":"86c8b014a5cfcb18c90c91c7adc9056563be0318","infoHashBuffer":{"type":"Buffer","data":[134,200,176,20,165,207,203,24,201,12,145,199,173,201,5,101,99,190,3,24]},"announce":[],"urlList":[]}}